solid 
   facet normal -9.807853e-01 -1.950903e-01 0.000000e+00
      outer loop
         vertex -5.000000e+00 6.123234e-16 0.000000e+00
         vertex -4.619398e+00 -1.913417e+00 0.000000e+00
         vertex -4.619398e+00 -1.913417e+00 1.000000e+00
      endloop
   endfacet
   facet normal -9.807853e-01 -1.950903e-01 0.000000e+00
      outer loop
         vertex -5.000000e+00 6.123234e-16 0.000000e+00
         vertex -4.619398e+00 -1.913417e+00 1.000000e+00
         vertex -5.000000e+00 6.123234e-16 1.000000e+00
      endloop
   endfacet
   facet normal -8.314696e-01 -5.555702e-01 0.000000e+00
      outer loop
         vertex -4.619398e+00 -1.913417e+00 0.000000e+00
         vertex -3.535534e+00 -3.535534e+00 0.000000e+00
         vertex -3.535534e+00 -3.535534e+00 1.000000e+00
      endloop
   endfacet
   facet normal -8.314696e-01 -5.555702e-01 0.000000e+00
      outer loop
         vertex -4.619398e+00 -1.913417e+00 0.000000e+00
         vertex -3.535534e+00 -3.535534e+00 1.000000e+00
         vertex -4.619398e+00 -1.913417e+00 1.000000e+00
      endloop
   endfacet
   facet normal -5.555702e-01 -8.314696e-01 0.000000e+00
      outer loop
         vertex -3.535534e+00 -3.535534e+00 0.000000e+00
         vertex -1.913417e+00 -4.619398e+00 0.000000e+00
         vertex -1.913417e+00 -4.619398e+00 1.000000e+00
      endloop
   endfacet
   facet normal -5.555702e-01 -8.314696e-01 0.000000e+00
      outer loop
         vertex -3.535534e+00 -3.535534e+00 0.000000e+00
         vertex -1.913417e+00 -4.619398e+00 1.000000e+00
         vertex -3.535534e+00 -3.535534e+00 1.000000e+00
      endloop
   endfacet
   facet normal -1.950903e-01 -9.807853e-01 0.000000e+00
      outer loop
         vertex -1.913417e+00 -4.619398e+00 0.000000e+00
         vertex -9.184850e-16 -5.000000e+00 0.000000e+00
         vertex -9.184850e-16 -5.000000e+00 1.000000e+00
      endloop
   endfacet
   facet normal -1.950903e-01 -9.807853e-01 0.000000e+00
      outer loop
         vertex -1.913417e+00 -4.619398e+00 0.000000e+00
         vertex -9.184850e-16 -5.000000e+00 1.000000e+00
         vertex -1.913417e+00 -4.619398e+00 1.000000e+00
      endloop
   endfacet
   facet normal 1.950903e-01 -9.807853e-01 0.000000e+00
      outer loop
         vertex -9.184850e-16 -5.000000e+00 0.000000e+00
         vertex 1.913417e+00 -4.619398e+00 0.000000e+00
         vertex 1.913417e+00 -4.619398e+00 1.000000e+00
      endloop
   endfacet
   facet normal 1.950903e-01 -9.807853e-01 0.000000e+00
      outer loop
         vertex -9.184850e-16 -5.000000e+00 0.000000e+00
         vertex 1.913417e+00 -4.619398e+00 1.000000e+00
         vertex -9.184850e-16 -5.000000e+00 1.000000e+00
      endloop
   endfacet
   facet normal 5.555702e-01 -8.314696e-01 0.000000e+00
      outer loop
         vertex 1.913417e+00 -4.619398e+00 0.000000e+00
         vertex 3.535534e+00 -3.535534e+00 0.000000e+00
         vertex 3.535534e+00 -3.535534e+00 1.000000e+00
      endloop
   endfacet
   facet normal 5.555702e-01 -8.314696e-01 0.000000e+00
      outer loop
         vertex 1.913417e+00 -4.619398e+00 0.000000e+00
         vertex 3.535534e+00 -3.535534e+00 1.000000e+00
         vertex 1.913417e+00 -4.619398e+00 1.000000e+00
      endloop
   endfacet
   facet normal 8.314696e-01 -5.555702e-01 0.000000e+00
      outer loop
         vertex 3.535534e+00 -3.535534e+00 0.000000e+00
         vertex 4.619398e+00 -1.913417e+00 0.000000e+00
         vertex 4.619398e+00 -1.913417e+00 1.000000e+00
      endloop
   endfacet
   facet normal 8.314696e-01 -5.555702e-01 0.000000e+00
      outer loop
         vertex 3.535534e+00 -3.535534e+00 0.000000e+00
         vertex 4.619398e+00 -1.913417e+00 1.000000e+00
         vertex 3.535534e+00 -3.535534e+00 1.000000e+00
      endloop
   endfacet
   facet normal 9.807853e-01 -1.950903e-01 0.000000e+00
      outer loop
         vertex 4.619398e+00 -1.913417e+00 0.000000e+00
         vertex 5.000000e+00 -1.224647e-15 0.000000e+00
         vertex 5.000000e+00 -1.224647e-15 1.000000e+00
      endloop
   endfacet
   facet normal 9.807853e-01 -1.950903e-01 0.000000e+00
      outer loop
         vertex 4.619398e+00 -1.913417e+00 0.000000e+00
         vertex 5.000000e+00 -1.224647e-15 1.000000e+00
         vertex 4.619398e+00 -1.913417e+00 1.000000e+00
      endloop
   endfacet
   facet normal 9.807853e-01 1.950903e-01 -0.000000e+00
      outer loop
         vertex 5.000000e+00 -1.224647e-15 0.000000e+00
         vertex 4.619398e+00 1.913417e+00 0.000000e+00
         vertex 4.619398e+00 1.913417e+00 1.000000e+00
      endloop
   endfacet
   facet normal 9.807853e-01 1.950903e-01 0.000000e+00
      outer loop
         vertex 5.000000e+00 -1.224647e-15 0.000000e+00
         vertex 4.619398e+00 1.913417e+00 1.000000e+00
         vertex 5.000000e+00 -1.224647e-15 1.000000e+00
      endloop
   endfacet
   facet normal 8.314696e-01 5.555702e-01 -0.000000e+00
      outer loop
         vertex 4.619398e+00 1.913417e+00 0.000000e+00
         vertex 3.535534e+00 3.535534e+00 0.000000e+00
         vertex 3.535534e+00 3.535534e+00 1.000000e+00
      endloop
   endfacet
   facet normal 8.314696e-01 5.555702e-01 0.000000e+00
      outer loop
         vertex 4.619398e+00 1.913417e+00 0.000000e+00
         vertex 3.535534e+00 3.535534e+00 1.000000e+00
         vertex 4.619398e+00 1.913417e+00 1.000000e+00
      endloop
   endfacet
   facet normal 5.555702e-01 8.314696e-01 -0.000000e+00
      outer loop
         vertex 3.535534e+00 3.535534e+00 0.000000e+00
         vertex 1.913417e+00 4.619398e+00 0.000000e+00
         vertex 1.913417e+00 4.619398e+00 1.000000e+00
      endloop
   endfacet
   facet normal 5.555702e-01 8.314696e-01 0.000000e+00
      outer loop
         vertex 3.535534e+00 3.535534e+00 0.000000e+00
         vertex 1.913417e+00 4.619398e+00 1.000000e+00
         vertex 3.535534e+00 3.535534e+00 1.000000e+00
      endloop
   endfacet
   facet normal 1.950903e-01 9.807853e-01 -0.000000e+00
      outer loop
         vertex 1.913417e+00 4.619398e+00 0.000000e+00
         vertex 1.530808e-15 5.000000e+00 0.000000e+00
         vertex 1.530808e-15 5.000000e+00 1.000000e+00
      endloop
   endfacet
   facet normal 1.950903e-01 9.807853e-01 0.000000e+00
      outer loop
         vertex 1.913417e+00 4.619398e+00 0.000000e+00
         vertex 1.530808e-15 5.000000e+00 1.000000e+00
         vertex 1.913417e+00 4.619398e+00 1.000000e+00
      endloop
   endfacet
   facet normal -1.950903e-01 9.807853e-01 0.000000e+00
      outer loop
         vertex 1.530808e-15 5.000000e+00 0.000000e+00
         vertex -1.913417e+00 4.619398e+00 0.000000e+00
         vertex -1.913417e+00 4.619398e+00 1.000000e+00
      endloop
   endfacet
   facet normal -1.950903e-01 9.807853e-01 0.000000e+00
      outer loop
         vertex 1.530808e-15 5.000000e+00 0.000000e+00
         vertex -1.913417e+00 4.619398e+00 1.000000e+00
         vertex 1.530808e-15 5.000000e+00 1.000000e+00
      endloop
   endfacet
   facet normal -5.555702e-01 8.314696e-01 0.000000e+00
      outer loop
         vertex -1.913417e+00 4.619398e+00 0.000000e+00
         vertex -3.535534e+00 3.535534e+00 0.000000e+00
         vertex -3.535534e+00 3.535534e+00 1.000000e+00
      endloop
   endfacet
   facet normal -5.555702e-01 8.314696e-01 0.000000e+00
      outer loop
         vertex -1.913417e+00 4.619398e+00 0.000000e+00
         vertex -3.535534e+00 3.535534e+00 1.000000e+00
         vertex -1.913417e+00 4.619398e+00 1.000000e+00
      endloop
   endfacet
   facet normal -8.314696e-01 5.555702e-01 0.000000e+00
      outer loop
         vertex -3.535534e+00 3.535534e+00 0.000000e+00
         vertex -4.619398e+00 1.913417e+00 0.000000e+00
         vertex -4.619398e+00 1.913417e+00 1.000000e+00
      endloop
   endfacet
   facet normal -8.314696e-01 5.555702e-01 0.000000e+00
      outer loop
         vertex -3.535534e+00 3.535534e+00 0.000000e+00
         vertex -4.619398e+00 1.913417e+00 1.000000e+00
         vertex -3.535534e+00 3.535534e+00 1.000000e+00
      endloop
   endfacet
   facet normal -9.807853e-01 1.950903e-01 0.000000e+00
      outer loop
         vertex -4.619398e+00 1.913417e+00 0.000000e+00
         vertex -5.000000e+00 1.836970e-15 0.000000e+00
         vertex -5.000000e+00 1.836970e-15 1.000000e+00
      endloop
   endfacet
   facet normal -9.807853e-01 1.950903e-01 0.000000e+00
      outer loop
         vertex -4.619398e+00 1.913417e+00 0.000000e+00
         vertex -5.000000e+00 1.836970e-15 1.000000e+00
         vertex -4.619398e+00 1.913417e+00 1.000000e+00
      endloop
   endfacet
   facet normal -0.000000e+00 0.000000e+00 1.000000e+00
      outer loop
         vertex -4.619398e+00 1.913417e+00 1.000000e+00
         vertex -5.000000e+00 6.123234e-16 1.000000e+00
         vertex -4.619398e+00 -1.913417e+00 1.000000e+00
      endloop
   endfacet
   facet normal 0.000000e+00 0.000000e+00 1.000000e+00
      outer loop
         vertex -4.619398e+00 -1.913417e+00 1.000000e+00
         vertex -3.535534e+00 -3.535534e+00 1.000000e+00
         vertex -4.619398e+00 1.913417e+00 1.000000e+00
      endloop
   endfacet
   facet normal 0.000000e+00 0.000000e+00 1.000000e+00
      outer loop
         vertex -3.535534e+00 -3.535534e+00 1.000000e+00
         vertex -1.913417e+00 -4.619398e+00 1.000000e+00
         vertex -4.619398e+00 1.913417e+00 1.000000e+00
      endloop
   endfacet
   facet normal 0.000000e+00 0.000000e+00 1.000000e+00
      outer loop
         vertex -1.913417e+00 -4.619398e+00 1.000000e+00
         vertex -9.184850e-16 -5.000000e+00 1.000000e+00
         vertex -4.619398e+00 1.913417e+00 1.000000e+00
      endloop
   endfacet
   facet normal 0.000000e+00 0.000000e+00 1.000000e+00
      outer loop
         vertex -9.184850e-16 -5.000000e+00 1.000000e+00
         vertex 1.913417e+00 -4.619398e+00 1.000000e+00
         vertex -4.619398e+00 1.913417e+00 1.000000e+00
      endloop
   endfacet
   facet normal 0.000000e+00 0.000000e+00 1.000000e+00
      outer loop
         vertex 1.913417e+00 -4.619398e+00 1.000000e+00
         vertex 3.535534e+00 -3.535534e+00 1.000000e+00
         vertex -4.619398e+00 1.913417e+00 1.000000e+00
      endloop
   endfacet
   facet normal 0.000000e+00 0.000000e+00 1.000000e+00
      outer loop
         vertex 3.535534e+00 -3.535534e+00 1.000000e+00
         vertex 4.619398e+00 -1.913417e+00 1.000000e+00
         vertex -4.619398e+00 1.913417e+00 1.000000e+00
      endloop
   endfacet
   facet normal 0.000000e+00 0.000000e+00 1.000000e+00
      outer loop
         vertex 4.619398e+00 -1.913417e+00 1.000000e+00
         vertex 5.000000e+00 -1.224647e-15 1.000000e+00
         vertex -4.619398e+00 1.913417e+00 1.000000e+00
      endloop
   endfacet
   facet normal 0.000000e+00 0.000000e+00 1.000000e+00
      outer loop
         vertex 5.000000e+00 -1.224647e-15 1.000000e+00
         vertex 4.619398e+00 1.913417e+00 1.000000e+00
         vertex -4.619398e+00 1.913417e+00 1.000000e+00
      endloop
   endfacet
   facet normal 0.000000e+00 0.000000e+00 1.000000e+00
      outer loop
         vertex 4.619398e+00 1.913417e+00 1.000000e+00
         vertex 3.535534e+00 3.535534e+00 1.000000e+00
         vertex -4.619398e+00 1.913417e+00 1.000000e+00
      endloop
   endfacet
   facet normal 0.000000e+00 0.000000e+00 1.000000e+00
      outer loop
         vertex 3.535534e+00 3.535534e+00 1.000000e+00
         vertex 1.913417e+00 4.619398e+00 1.000000e+00
         vertex -4.619398e+00 1.913417e+00 1.000000e+00
      endloop
   endfacet
   facet normal 0.000000e+00 0.000000e+00 1.000000e+00
      outer loop
         vertex 1.913417e+00 4.619398e+00 1.000000e+00
         vertex 1.530808e-15 5.000000e+00 1.000000e+00
         vertex -4.619398e+00 1.913417e+00 1.000000e+00
      endloop
   endfacet
   facet normal -0.000000e+00 0.000000e+00 1.000000e+00
      outer loop
         vertex 1.530808e-15 5.000000e+00 1.000000e+00
         vertex -1.913417e+00 4.619398e+00 1.000000e+00
         vertex -4.619398e+00 1.913417e+00 1.000000e+00
      endloop
   endfacet
   facet normal -0.000000e+00 0.000000e+00 1.000000e+00
      outer loop
         vertex -1.913417e+00 4.619398e+00 1.000000e+00
         vertex -3.535534e+00 3.535534e+00 1.000000e+00
         vertex -4.619398e+00 1.913417e+00 1.000000e+00
      endloop
   endfacet
   facet normal 0.000000e+00 0.000000e+00 -1.000000e+00
      outer loop
         vertex -3.535534e+00 -3.535534e+00 0.000000e+00
         vertex -4.619398e+00 -1.913417e+00 0.000000e+00
         vertex -5.000000e+00 6.123234e-16 0.000000e+00
      endloop
   endfacet
   facet normal 0.000000e+00 0.000000e+00 -1.000000e+00
      outer loop
         vertex -5.000000e+00 6.123234e-16 0.000000e+00
         vertex -1.913417e+00 -4.619398e+00 0.000000e+00
         vertex -3.535534e+00 -3.535534e+00 0.000000e+00
      endloop
   endfacet
   facet normal 0.000000e+00 0.000000e+00 -1.000000e+00
      outer loop
         vertex -5.000000e+00 6.123234e-16 0.000000e+00
         vertex -9.184850e-16 -5.000000e+00 0.000000e+00
         vertex -1.913417e+00 -4.619398e+00 0.000000e+00
      endloop
   endfacet
   facet normal -0.000000e+00 0.000000e+00 -1.000000e+00
      outer loop
         vertex -5.000000e+00 6.123234e-16 0.000000e+00
         vertex 1.913417e+00 -4.619398e+00 0.000000e+00
         vertex -9.184850e-16 -5.000000e+00 0.000000e+00
      endloop
   endfacet
   facet normal -0.000000e+00 0.000000e+00 -1.000000e+00
      outer loop
         vertex -5.000000e+00 6.123234e-16 0.000000e+00
         vertex 3.535534e+00 -3.535534e+00 0.000000e+00
         vertex 1.913417e+00 -4.619398e+00 0.000000e+00
      endloop
   endfacet
   facet normal -0.000000e+00 0.000000e+00 -1.000000e+00
      outer loop
         vertex -5.000000e+00 6.123234e-16 0.000000e+00
         vertex 4.619398e+00 -1.913417e+00 0.000000e+00
         vertex 3.535534e+00 -3.535534e+00 0.000000e+00
      endloop
   endfacet
   facet normal -0.000000e+00 0.000000e+00 -1.000000e+00
      outer loop
         vertex -5.000000e+00 6.123234e-16 0.000000e+00
         vertex 5.000000e+00 -1.224647e-15 0.000000e+00
         vertex 4.619398e+00 -1.913417e+00 0.000000e+00
      endloop
   endfacet
   facet normal 0.000000e+00 -0.000000e+00 -1.000000e+00
      outer loop
         vertex -5.000000e+00 6.123234e-16 0.000000e+00
         vertex 4.619398e+00 1.913417e+00 0.000000e+00
         vertex 5.000000e+00 -1.224647e-15 0.000000e+00
      endloop
   endfacet
   facet normal -0.000000e+00 -0.000000e+00 -1.000000e+00
      outer loop
         vertex 1.913417e+00 4.619398e+00 0.000000e+00
         vertex 3.535534e+00 3.535534e+00 0.000000e+00
         vertex 4.619398e+00 1.913417e+00 0.000000e+00
      endloop
   endfacet
   facet normal 0.000000e+00 -0.000000e+00 -1.000000e+00
      outer loop
         vertex -5.000000e+00 6.123234e-16 0.000000e+00
         vertex 1.530808e-15 5.000000e+00 0.000000e+00
         vertex 1.913417e+00 4.619398e+00 0.000000e+00
      endloop
   endfacet
   facet normal 0.000000e+00 -0.000000e+00 -1.000000e+00
      outer loop
         vertex -5.000000e+00 6.123234e-16 0.000000e+00
         vertex -1.913417e+00 4.619398e+00 0.000000e+00
         vertex 1.530808e-15 5.000000e+00 0.000000e+00
      endloop
   endfacet
   facet normal 0.000000e+00 -0.000000e+00 -1.000000e+00
      outer loop
         vertex -5.000000e+00 6.123234e-16 0.000000e+00
         vertex -3.535534e+00 3.535534e+00 0.000000e+00
         vertex -1.913417e+00 4.619398e+00 0.000000e+00
      endloop
   endfacet
   facet normal 0.000000e+00 -0.000000e+00 -1.000000e+00
      outer loop
         vertex -5.000000e+00 6.123234e-16 0.000000e+00
         vertex -4.619398e+00 1.913417e+00 0.000000e+00
         vertex -3.535534e+00 3.535534e+00 0.000000e+00
      endloop
   endfacet
   facet normal -0.000000e+00 0.000000e+00 -1.000000e+00
      outer loop
         vertex 1.913417e+00 4.619398e+00 0.000000e+00
         vertex 4.619398e+00 1.913417e+00 0.000000e+00
         vertex -5.000000e+00 6.123234e-16 0.000000e+00
      endloop
   endfacet
endsolid
